<svg xmlns="http://www.w3.org/2000/svg" version="1.1" xmlns:xlink="http://www.w3.org/1999/xlink" xmlns:svgjs="http://svgjs.com/svgjs" width="500" height="500" preserveAspectRatio="none" viewBox="0 0 500 500"><g mask="url(&quot;#SvgjsMask1042&quot;)" fill="none"><rect width="500" height="500" x="0" y="0" fill="rgba(121, 82, 179, 1)"></rect><path d="M0,217.87C40.569,218.711,73.951,190.019,109.21,169.934C146.547,148.665,190.817,134.17,212.283,96.946C234.403,58.587,241.213,9.077,225.938,-32.485C211.351,-72.174,162.651,-85.014,133.984,-116.098C106.58,-145.813,97.33,-191.195,61.798,-210.466C23.369,-231.308,-23.399,-234.655,-65.925,-224.521C-109.603,-214.113,-151.794,-190.562,-177.174,-153.522C-201.567,-117.923,-201.327,-71.899,-200.06,-28.764C-198.955,8.859,-186.737,43.911,-170.38,77.81C-154.329,111.074,-134.87,142.012,-106.339,165.466C-75.181,191.079,-40.325,217.034,0,217.87" fill="#4e3476"></path><path d="M500 689.159C537.616 690.371 575.708 687.213 608.832 669.345 643.492 650.649 673.019 622.304 689.9010000000001 586.725 706.9159999999999 550.867 706.473 510.348 703.039 470.807 699.435 429.31100000000004 701.315 380.044 669.605 353.03700000000003 637.7429999999999 325.9 586.8050000000001 352.624 547.475 338.315 503.814 322.43 477.677 262.23400000000004 431.401 266.373 386.572 270.382 358.451 318.69 335.305 357.291 314.605 391.813 315.651 432.883 307.877 472.377 299.60400000000004 514.408 270.227 557.841 288.174 596.738 306.123 635.641 356.317 645.3389999999999 395.586 662.472 429.193 677.135 463.353 687.9780000000001 500 689.159" fill="#aa92cf"></path></g><defs><mask id="SvgjsMask1042"><rect width="500" height="500" fill="#ffffff"></rect></mask></defs></svg>