<?xml version="1.0" encoding="UTF-8" standalone="no" ?>
<!DOCTYPE svg PUBLIC "-//W3C//DTD SVG 1.1//EN" "http://www.w3.org/Graphics/SVG/1.1/DTD/svg11.dtd">
<svg xmlns="http://www.w3.org/2000/svg" xmlns:xlink="http://www.w3.org/1999/xlink" version="1.1" width="200" height="200" viewBox="0 0 200 200" xml:space="preserve">
<desc>Created with Fabric.js 4.2.0</desc>
<defs>
</defs>
<g transform="matrix(1 0 0 1 100 100)" id="84ba9ee5-473e-4596-8e24-b69d86d4df96"  >
<rect style="stroke: none; stroke-width: 1; stroke-dasharray: none; stroke-linecap: butt; stroke-dashoffset: 0; stroke-linejoin: miter; stroke-miterlimit: 4; fill: rgb(255,255,255); fill-rule: nonzero; opacity: 1; visibility: hidden;" vector-effect="non-scaling-stroke"  x="-100" y="-100" rx="0" ry="0" width="200" height="200" />
</g>
<g transform="matrix(Infinity NaN NaN Infinity 0 0)" id="3b01e269-beef-4c4f-95fb-ce051e92fb34"  >
</g>
<g transform="matrix(10.67 0 0 10.67 100 100)"  >
<g style="" vector-effect="non-scaling-stroke"   >
		<g transform="matrix(1 0 0 1 1.5 -1.43)"  >
<path style="stroke: none; stroke-width: 1; stroke-dasharray: none; stroke-linecap: butt; stroke-dashoffset: 0; stroke-linejoin: miter; stroke-miterlimit: 4; fill: rgb(255,193,7); fill-rule: nonzero; opacity: 1;" vector-effect="non-scaling-stroke"  transform=" translate(-9.82, -6.32)" d="M 15.502 1.94 C 15.69652544485551 2.135134875086626 15.69652544485551 2.4508651249133733 15.502 2.646 L 14.459 3.69 L 12.459 1.69 L 13.502 0.646 C 13.697249925742907 0.45080903083356805 14.013750074257095 0.45080903083356794 14.209000000000001 0.6459999999999997 L 15.502 1.939 z M 13.752 4.396 L 11.752 2.396 L 4.939 9.21 C 4.883962299899748 9.265025919679022 4.8425296210176185 9.332140011091395 4.818 9.406 L 4.013 11.82 C 3.98322547632669 11.909753719231711 4.00664112297324 12.008625916423195 4.073507603275022 12.075492396724979 C 4.140374083576804 12.14235887702676 4.239246280768289 12.16577452367331 4.329 12.136000000000001 L 6.743 11.331000000000001 C 6.816764498242676 11.306760986776165 6.883870278479148 11.265675815202815 6.939 11.211000000000002 L 13.751999999999999 4.397000000000002 z" stroke-linecap="round" />
</g>
		<g transform="matrix(1 0 0 1 -0.32 0.25)"  >
<path style="stroke: none; stroke-width: 1; stroke-dasharray: none; stroke-linecap: butt; stroke-dashoffset: 0; stroke-linejoin: miter; stroke-miterlimit: 4; fill: rgb(255,193,7); fill-rule: evenodd; opacity: 1;" vector-effect="non-scaling-stroke"  transform=" translate(-8, -8)" d="M 1 13.5 C 1 14.32842712474619 1.6715728752538097 15 2.5 15 L 13.5 15 C 14.32842712474619 15 15 14.32842712474619 15 13.5 L 15 7.5 C 15 7.223857625084603 14.776142374915397 7 14.5 7 C 14.223857625084603 7 14 7.223857625084603 14 7.5 L 14 13.5 C 14 13.776142374915397 13.776142374915397 14 13.5 14 L 2.5 14 C 2.2238576250846034 14 2 13.776142374915397 2 13.5 L 2 2.5 C 2 2.2238576250846034 2.2238576250846034 2 2.5 2 L 9 2 C 9.276142374915397 2 9.5 1.7761423749153966 9.5 1.5 C 9.5 1.2238576250846034 9.276142374915397 1 9 1 L 2.5 1 C 1.6715728752538097 1 1 1.6715728752538097 1 2.5 L 1 13.5 z" stroke-linecap="round" />
</g>
</g>
</g>
</svg>