<?xml version="1.0" encoding="UTF-8" standalone="no" ?>
<!DOCTYPE svg PUBLIC "-//W3C//DTD SVG 1.1//EN" "http://www.w3.org/Graphics/SVG/1.1/DTD/svg11.dtd">
<svg xmlns="http://www.w3.org/2000/svg" xmlns:xlink="http://www.w3.org/1999/xlink" version="1.1" width="200" height="200" viewBox="0 0 200 200" xml:space="preserve">
<desc>Created with Fabric.js 4.2.0</desc>
<defs>
</defs>
<rect x="0" y="0" width="100%" height="100%" fill="transparent"></rect>
<g transform="matrix(1 0 0 1 100 100)" id="84ba9ee5-473e-4596-8e24-b69d86d4df96"  >
<rect style="stroke: none; stroke-width: 1; stroke-dasharray: none; stroke-linecap: butt; stroke-dashoffset: 0; stroke-linejoin: miter; stroke-miterlimit: 4; fill: rgb(255,255,255); fill-rule: nonzero; opacity: 1; visibility: hidden;" vector-effect="non-scaling-stroke"  x="-100" y="-100" rx="0" ry="0" width="200" height="200" />
</g>
<g transform="matrix(Infinity NaN NaN Infinity 0 0)" id="3b01e269-beef-4c4f-95fb-ce051e92fb34"  >
</g>
<g transform="matrix(11.29 0 0 11.29 100.8 99.07)" id="4fad5c33-6c6e-4502-b4d1-1e817ca09d1f"  >
<path style="stroke: rgb(255,0,0); stroke-width: 0; stroke-dasharray: none; stroke-linecap: butt; stroke-dashoffset: 0; stroke-linejoin: miter; stroke-miterlimit: 4; fill: rgb(220,53,69); fill-rule: nonzero; opacity: 1;" vector-effect="non-scaling-stroke"  transform=" translate(-8, -7.5)" d="M 2.5 1 C 1.9477152501692065 1 1.5 1.4477152501692065 1.5 2 L 1.5 3 C 1.5 3.5522847498307932 1.9477152501692065 4 2.5 4 L 3 4 L 3 13 C 3 14.104569499661586 3.895430500338413 15 5 15 L 11 15 C 12.104569499661586 15 13 14.104569499661586 13 13 L 13 4 L 13.5 4 C 14.052284749830793 4 14.5 3.5522847498307932 14.5 3 L 14.5 2 C 14.5 1.4477152501692065 14.052284749830793 1 13.5 1 L 10 1 C 10 0.44771525016920655 9.552284749830793 0 9 0 L 7 0 C 6.447715250169207 0 6 0.44771525016920655 6 1 L 2.5 1 z M 5.5 5 C 5.776142374915397 5 6 5.223857625084603 6 5.5 L 6 12.5 C 6 12.776142374915397 5.776142374915397 13 5.5 13 C 5.223857625084603 13 5 12.776142374915397 5 12.5 L 5 5.5 C 5 5.223857625084603 5.223857625084603 5 5.5 5 z M 8 5 C 8.276142374915397 5 8.5 5.223857625084603 8.5 5.5 L 8.5 12.5 C 8.5 12.776142374915397 8.276142374915397 13 8 13 C 7.723857625084603 13 7.5 12.776142374915397 7.5 12.5 L 7.5 5.5 C 7.5 5.223857625084603 7.723857625084603 5 8 5 z M 11 5.5 L 11 12.5 C 11 12.776142374915397 10.776142374915397 13 10.5 13 C 10.223857625084603 13 10 12.776142374915397 10 12.5 L 10 5.5 C 10 5.223857625084603 10.223857625084603 5 10.5 5 C 10.776142374915397 5 11 5.223857625084603 11 5.5 z" stroke-linecap="round" />
</g>
</svg>