<svg xmlns="http://www.w3.org/2000/svg" version="1.1" xmlns:xlink="http://www.w3.org/1999/xlink" xmlns:svgjs="http://svgjs.com/svgjs" width="2000" height="2000" preserveAspectRatio="none" viewBox="0 0 2000 2000"><g mask="url(&quot;#SvgjsMask1063&quot;)" fill="none"><rect width="2000" height="2000" x="0" y="0" fill="rgba(230, 222, 241, 1)"></rect><path d="M358.22,1317.753C439.058,1312.471,500.097,1253.158,540.575,1182.986C581.02,1112.872,601.902,1030.3,565.834,957.837C525.862,877.53,447.792,811.738,358.22,816.624C274.013,821.217,228.873,905.647,186.448,978.53C143.622,1052.102,90.861,1133.912,129.318,1209.859C170.16,1290.516,268.004,1323.648,358.22,1317.753" fill="rgba(170, 146, 207, 1)" class="triangle-float3"></path><path d="M942.588,2058.382C1072.53,2051.252,1162.501,1941.424,1223.468,1826.452C1279.818,1720.187,1296.877,1598.32,1243.78,1490.393C1183.543,1367.953,1078.99,1259.31,942.588,1255.522C800.995,1251.59,680.337,1349.326,610.96,1472.821C543.105,1593.606,534.444,1739.961,602.716,1860.511C671.956,1982.77,802.295,2066.08,942.588,2058.382" fill="rgba(170, 146, 207, 1)" class="triangle-float1"></path><path d="M2046.061,1573.951C2169.944,1581.241,2303.551,1544.033,2364.919,1436.172C2425.808,1329.151,2381.787,1200.413,2318.77,1094.631C2257.608,991.962,2165.565,900.322,2046.061,900.926C1927.356,901.525,1832.724,991.978,1778.082,1097.361C1727.947,1194.052,1732.812,1307.177,1786.194,1402.114C1840.746,1499.133,1934.949,1567.412,2046.061,1573.951" fill="rgba(170, 146, 207, 1)" class="triangle-float1"></path><path d="M1806.203,806.039C1873.931,803.982,1922.466,747.928,1955.078,688.533C1986.198,631.855,2002.418,563.956,1969.764,508.148C1937.37,452.784,1870.342,433.212,1806.203,434.095C1743.843,434.953,1683.375,459.698,1650.261,512.546C1615.02,568.788,1609.651,639.468,1640.793,698.079C1673.905,760.397,1735.667,808.182,1806.203,806.039" fill="rgba(170, 146, 207, 1)" class="triangle-float1"></path></g><defs><mask id="SvgjsMask1063"><rect width="2000" height="2000" fill="#ffffff"></rect></mask><style>
            @keyframes float1 {
                0%{transform: translate(0, 0)}
                50%{transform: translate(-10px, 0)}
                100%{transform: translate(0, 0)}
            }

            .triangle-float1 {
                animation: float1 5s infinite;
            }

            @keyframes float2 {
                0%{transform: translate(0, 0)}
                50%{transform: translate(-5px, -5px)}
                100%{transform: translate(0, 0)}
            }

            .triangle-float2 {
                animation: float2 4s infinite;
            }

            @keyframes float3 {
                0%{transform: translate(0, 0)}
                50%{transform: translate(0, -10px)}
                100%{transform: translate(0, 0)}
            }

            .triangle-float3 {
                animation: float3 6s infinite;
            }
        </style></defs></svg>