<svg xmlns="http://www.w3.org/2000/svg" version="1.1" xmlns:xlink="http://www.w3.org/1999/xlink" xmlns:svgjs="http://svgjs.com/svgjs" width="2000" height="2000" preserveAspectRatio="none" viewBox="0 0 2000 2000"><g mask="url(&quot;#SvgjsMask1012&quot;)" fill="none"><path d="M548 803L547 -569" stroke-width="8" stroke="url(#SvgjsLinearGradient1013)" stroke-linecap="round" class="Down"></path><path d="M192 951L191 182" stroke-width="8" stroke="url(#SvgjsLinearGradient1014)" stroke-linecap="round" class="Up"></path><path d="M315 1249L314 2247" stroke-width="6" stroke="url(#SvgjsLinearGradient1013)" stroke-linecap="round" class="Down"></path><path d="M1397 1160L1396 573" stroke-width="6" stroke="url(#SvgjsLinearGradient1013)" stroke-linecap="round" class="Down"></path><path d="M1086 1742L1085 280" stroke-width="6" stroke="url(#SvgjsLinearGradient1013)" stroke-linecap="round" class="Down"></path><path d="M392 1026L391 231" stroke-width="6" stroke="url(#SvgjsLinearGradient1013)" stroke-linecap="round" class="Down"></path><path d="M137 430L136 1121" stroke-width="10" stroke="url(#SvgjsLinearGradient1014)" stroke-linecap="round" class="Up"></path><path d="M546 1541L545 634" stroke-width="6" stroke="url(#SvgjsLinearGradient1014)" stroke-linecap="round" class="Up"></path><path d="M440 138L439 -598" stroke-width="8" stroke="url(#SvgjsLinearGradient1014)" stroke-linecap="round" class="Up"></path><path d="M1230 1192L1229 2391" stroke-width="10" stroke="url(#SvgjsLinearGradient1014)" stroke-linecap="round" class="Up"></path><path d="M662 50L661 1307" stroke-width="8" stroke="url(#SvgjsLinearGradient1014)" stroke-linecap="round" class="Up"></path><path d="M852 742L851 2216" stroke-width="6" stroke="url(#SvgjsLinearGradient1014)" stroke-linecap="round" class="Up"></path><path d="M528 924L527 1442" stroke-width="10" stroke="url(#SvgjsLinearGradient1013)" stroke-linecap="round" class="Down"></path><path d="M1500 1416L1499 251" stroke-width="8" stroke="url(#SvgjsLinearGradient1013)" stroke-linecap="round" class="Down"></path><path d="M1701 568L1700 1489" stroke-width="10" stroke="url(#SvgjsLinearGradient1013)" stroke-linecap="round" class="Down"></path><path d="M1559 926L1558 1542" stroke-width="10" stroke="url(#SvgjsLinearGradient1014)" stroke-linecap="round" class="Up"></path><path d="M898 104L897 1443" stroke-width="10" stroke="url(#SvgjsLinearGradient1013)" stroke-linecap="round" class="Down"></path><path d="M601 223L600 1591" stroke-width="8" stroke="url(#SvgjsLinearGradient1013)" stroke-linecap="round" class="Down"></path><path d="M232 1559L231 140" stroke-width="6" stroke="url(#SvgjsLinearGradient1014)" stroke-linecap="round" class="Up"></path><path d="M1160 109L1159 1044" stroke-width="10" stroke="url(#SvgjsLinearGradient1013)" stroke-linecap="round" class="Down"></path><path d="M1827 1054L1826 2441" stroke-width="6" stroke="url(#SvgjsLinearGradient1013)" stroke-linecap="round" class="Down"></path><path d="M1218 835L1217 70" stroke-width="8" stroke="url(#SvgjsLinearGradient1014)" stroke-linecap="round" class="Up"></path><path d="M601 1855L600 1010" stroke-width="10" stroke="url(#SvgjsLinearGradient1013)" stroke-linecap="round" class="Down"></path><path d="M1646 389L1645 -471" stroke-width="8" stroke="url(#SvgjsLinearGradient1014)" stroke-linecap="round" class="Up"></path><path d="M241 161L240 -786" stroke-width="10" stroke="url(#SvgjsLinearGradient1014)" stroke-linecap="round" class="Up"></path><path d="M897 307L896 -298" stroke-width="6" stroke="url(#SvgjsLinearGradient1014)" stroke-linecap="round" class="Up"></path><path d="M1075 885L1074 -159" stroke-width="10" stroke="url(#SvgjsLinearGradient1013)" stroke-linecap="round" class="Down"></path><path d="M679 1171L678 129" stroke-width="6" stroke="url(#SvgjsLinearGradient1013)" stroke-linecap="round" class="Down"></path><path d="M1412 962L1411 2113" stroke-width="10" stroke="url(#SvgjsLinearGradient1013)" stroke-linecap="round" class="Down"></path><path d="M1889 1917L1888 3252" stroke-width="6" stroke="url(#SvgjsLinearGradient1014)" stroke-linecap="round" class="Up"></path><path d="M419 1525L418 2868" stroke-width="6" stroke="url(#SvgjsLinearGradient1014)" stroke-linecap="round" class="Up"></path><path d="M613 1771L612 2827" stroke-width="8" stroke="url(#SvgjsLinearGradient1014)" stroke-linecap="round" class="Up"></path><path d="M656 1683L655 3143" stroke-width="8" stroke="url(#SvgjsLinearGradient1013)" stroke-linecap="round" class="Down"></path><path d="M708 408L707 -336" stroke-width="8" stroke="url(#SvgjsLinearGradient1014)" stroke-linecap="round" class="Up"></path><path d="M663 1472L662 646" stroke-width="6" stroke="url(#SvgjsLinearGradient1014)" stroke-linecap="round" class="Up"></path><path d="M58 791L57 1360" stroke-width="10" stroke="url(#SvgjsLinearGradient1014)" stroke-linecap="round" class="Up"></path><path d="M16 1337L15 243" stroke-width="8" stroke="url(#SvgjsLinearGradient1014)" stroke-linecap="round" class="Up"></path><path d="M1996 858L1995 1939" stroke-width="10" stroke="url(#SvgjsLinearGradient1013)" stroke-linecap="round" class="Down"></path><path d="M1917 1261L1916 2332" stroke-width="8" stroke="url(#SvgjsLinearGradient1014)" stroke-linecap="round" class="Up"></path><path d="M1025 1611L1024 2881" stroke-width="8" stroke="url(#SvgjsLinearGradient1013)" stroke-linecap="round" class="Down"></path><path d="M1409 657L1408 25" stroke-width="10" stroke="url(#SvgjsLinearGradient1013)" stroke-linecap="round" class="Down"></path><path d="M93 1056L92 1606" stroke-width="10" stroke="url(#SvgjsLinearGradient1014)" stroke-linecap="round" class="Up"></path><path d="M722 1891L721 1143" stroke-width="10" stroke="url(#SvgjsLinearGradient1013)" stroke-linecap="round" class="Down"></path><path d="M1097 21L1096 -695" stroke-width="6" stroke="url(#SvgjsLinearGradient1014)" stroke-linecap="round" class="Up"></path><path d="M407 1587L406 2242" stroke-width="8" stroke="url(#SvgjsLinearGradient1014)" stroke-linecap="round" class="Up"></path><path d="M1912 1144L1911 2463" stroke-width="8" stroke="url(#SvgjsLinearGradient1013)" stroke-linecap="round" class="Down"></path><path d="M652 1769L651 2476" stroke-width="6" stroke="url(#SvgjsLinearGradient1014)" stroke-linecap="round" class="Up"></path><path d="M1583 667L1582 1370" stroke-width="6" stroke="url(#SvgjsLinearGradient1014)" stroke-linecap="round" class="Up"></path><path d="M1043 1383L1042 2516" stroke-width="10" stroke="url(#SvgjsLinearGradient1014)" stroke-linecap="round" class="Up"></path><path d="M1416 1726L1415 2485" stroke-width="10" stroke="url(#SvgjsLinearGradient1014)" stroke-linecap="round" class="Up"></path></g><defs><mask id="SvgjsMask1012"><rect width="2000" height="2000" fill="#ffffff"></rect></mask><linearGradient x1="0%" y1="0%" x2="0%" y2="100%" id="SvgjsLinearGradient1013"><stop stop-color="rgba(121, 82, 179, 0)" offset="0"></stop><stop stop-color="rgba(121, 82, 179, 1)" offset="1"></stop></linearGradient><linearGradient x1="0%" y1="100%" x2="0%" y2="0%" id="SvgjsLinearGradient1014"><stop stop-color="rgba(121, 82, 179, 0)" offset="0"></stop><stop stop-color="rgba(121, 82, 179, 1)" offset="1"></stop></linearGradient></defs></svg>