<svg xmlns="http://www.w3.org/2000/svg" version="1.1" xmlns:xlink="http://www.w3.org/1999/xlink" xmlns:svgjs="http://svgjs.com/svgjs" width="800" height="400" preserveAspectRatio="none" viewBox="0 0 800 400"><g mask="url(&quot;#SvgjsMask1652&quot;)" fill="none"><g transform="translate(-64, 0)" stroke-linecap="round"><path d="M90 172.96 L90 227.04" stroke-width="15" stroke="rgba(170, 146, 207, 1)"></path><path d="M110 60.99 L110 339.01" stroke-width="15" stroke="rgba(121, 82, 179, 1)"></path><path d="M130 96.53 L130 303.48" stroke-width="15" stroke="rgba(170, 146, 207, 1)"></path><path d="M150 65.94 L150 334.06" stroke-width="15" stroke="rgba(121, 82, 179, 1)"></path><path d="M170 96.25 L170 303.75" stroke-width="15" stroke="rgba(121, 82, 179, 1)"></path><path d="M190 101.01 L190 298.99" stroke-width="15" stroke="rgba(170, 146, 207, 1)"></path><path d="M210 133.66 L210 266.35" stroke-width="15" stroke="rgba(170, 146, 207, 1)"></path><path d="M230 143.18 L230 256.82" stroke-width="15" stroke="rgba(170, 146, 207, 1)"></path><path d="M250 177.16 L250 222.84" stroke-width="15" stroke="rgba(170, 146, 207, 1)"></path><path d="M270 173.2 L270 226.8" stroke-width="15" stroke="rgba(121, 82, 179, 1)"></path><path d="M290 153.05 L290 246.95" stroke-width="15" stroke="rgba(121, 82, 179, 1)"></path><path d="M310 105.44 L310 294.56" stroke-width="15" stroke="rgba(121, 82, 179, 1)"></path><path d="M330 72.33 L330 327.67" stroke-width="15" stroke="rgba(170, 146, 207, 1)"></path><path d="M350 171.44 L350 228.56" stroke-width="15" stroke="rgba(170, 146, 207, 1)"></path><path d="M370 142.32 L370 257.68" stroke-width="15" stroke="rgba(121, 82, 179, 1)"></path><path d="M390 54.38 L390 345.62" stroke-width="15" stroke="rgba(170, 146, 207, 1)"></path><path d="M410 118.75 L410 281.25" stroke-width="15" stroke="rgba(121, 82, 179, 1)"></path><path d="M430 151.41 L430 248.59" stroke-width="15" stroke="rgba(170, 146, 207, 1)"></path><path d="M450 85.83 L450 314.18" stroke-width="15" stroke="rgba(121, 82, 179, 1)"></path><path d="M470 144.75 L470 255.25" stroke-width="15" stroke="rgba(121, 82, 179, 1)"></path><path d="M490 107.44 L490 292.56" stroke-width="15" stroke="rgba(121, 82, 179, 1)"></path><path d="M510 140.1 L510 259.9" stroke-width="15" stroke="rgba(170, 146, 207, 1)"></path><path d="M530 134.76 L530 265.24" stroke-width="15" stroke="rgba(121, 82, 179, 1)"></path><path d="M550 85.98 L550 314.01" stroke-width="15" stroke="rgba(170, 146, 207, 1)"></path><path d="M570 109.87 L570 290.13" stroke-width="15" stroke="rgba(170, 146, 207, 1)"></path><path d="M590 81.3 L590 318.7" stroke-width="15" stroke="rgba(170, 146, 207, 1)"></path><path d="M610 181.06 L610 218.94" stroke-width="15" stroke="rgba(121, 82, 179, 1)"></path><path d="M630 63.9 L630 336.11" stroke-width="15" stroke="rgba(170, 146, 207, 1)"></path><path d="M650 76.61 L650 323.39" stroke-width="15" stroke="rgba(121, 82, 179, 1)"></path><path d="M670 108.33 L670 291.68" stroke-width="15" stroke="rgba(170, 146, 207, 1)"></path><path d="M690 156.18 L690 243.82" stroke-width="15" stroke="rgba(170, 146, 207, 1)"></path><path d="M710 122.22 L710 277.78" stroke-width="15" stroke="rgba(121, 82, 179, 1)"></path></g></g><defs><mask id="SvgjsMask1652"><rect width="800" height="400" fill="#ffffff"></rect></mask></defs></svg>