<svg xmlns="http://www.w3.org/2000/svg" version="1.1" xmlns:xlink="http://www.w3.org/1999/xlink" xmlns:svgjs="http://svgjs.com/svgjs" width="2000" height="1500" preserveAspectRatio="none" viewBox="0 0 2000 1500"><g mask="url(&quot;#SvgjsMask1521&quot;)" fill="none"><rect width="2000" height="1500" x="0" y="0" fill="rgba(151, 102, 219, 1)"></rect><path d="M0 0L469.41 0L0 545.56z" fill="rgba(255, 255, 255, .1)"></path><path d="M0 545.56L469.41 0L517.9 0L0 793.1199999999999z" fill="rgba(255, 255, 255, .075)"></path><path d="M0 793.1199999999999L517.9 0L577.12 0L0 1116.1499999999999z" fill="rgba(255, 255, 255, .05)"></path><path d="M0 1116.1499999999999L577.12 0L1300.19 0L0 1197.4599999999998z" fill="rgba(255, 255, 255, .025)"></path><path d="M2000 1500L1893.57 1500L2000 839.62z" fill="rgba(0, 0, 0, .1)"></path><path d="M2000 839.62L1893.57 1500L1548.3999999999999 1500L2000 735.59z" fill="rgba(0, 0, 0, .075)"></path><path d="M2000 735.59L1548.4 1500L809.5000000000001 1500L2000 672.03z" fill="rgba(0, 0, 0, .05)"></path><path d="M2000 672.03L809.5 1500L453.29 1500L2000 383.63z" fill="rgba(0, 0, 0, .025)"></path></g><defs><mask id="SvgjsMask1521"><rect width="2000" height="1500" fill="#ffffff"></rect></mask></defs></svg>