<?xml version="1.0" encoding="UTF-8" standalone="no" ?>
<!DOCTYPE svg PUBLIC "-//W3C//DTD SVG 1.1//EN" "http://www.w3.org/Graphics/SVG/1.1/DTD/svg11.dtd">
<svg xmlns="http://www.w3.org/2000/svg" xmlns:xlink="http://www.w3.org/1999/xlink" version="1.1" width="800" height="400" viewBox="0 0 800 400" xml:space="preserve">
<desc>Created with Fabric.js 4.2.0</desc>
<defs>
</defs>
<rect x="0" y="0" width="100%" height="100%" fill="transparent"></rect>
<g transform="matrix(1 0 0 1 400 200)" id="4df9df00-93cf-4016-988c-cf432f1ba800"  >
<rect style="stroke: none; stroke-width: 1; stroke-dasharray: none; stroke-linecap: butt; stroke-dashoffset: 0; stroke-linejoin: miter; stroke-miterlimit: 4; fill: rgb(255,255,255); fill-rule: nonzero; opacity: 1;" vector-effect="non-scaling-stroke"  x="-400" y="-200" rx="0" ry="0" width="800" height="400" />
</g>
<g transform="matrix(Infinity NaN NaN Infinity 0 0)" id="033a721c-8785-4fba-a9a3-f4382e2e8d55"  >
</g>
<g transform="matrix(1.22 0 0 1.22 400 200)"  >
<g style="opacity: 0.28;" vector-effect="non-scaling-stroke"   >
		<g transform="matrix(1 0 0 1 -310 0)"  >
<path style="stroke: rgb(170,146,207); stroke-width: 15; stroke-dasharray: none; stroke-linecap: round; stroke-dashoffset: 0; stroke-linejoin: miter; stroke-miterlimit: 4; fill: none; fill-rule: nonzero; opacity: 1;" vector-effect="non-scaling-stroke"  transform=" translate(-90, -200)" d="M 90 172.96 L 90 227.04" stroke-linecap="round" />
</g>
		<g transform="matrix(1 0 0 1 -290 0)"  >
<path style="stroke: rgb(121,82,179); stroke-width: 15; stroke-dasharray: none; stroke-linecap: round; stroke-dashoffset: 0; stroke-linejoin: miter; stroke-miterlimit: 4; fill: none; fill-rule: nonzero; opacity: 1;" vector-effect="non-scaling-stroke"  transform=" translate(-110, -200)" d="M 110 60.99 L 110 339.01" stroke-linecap="round" />
</g>
		<g transform="matrix(1 0 0 1 -270 0)"  >
<path style="stroke: rgb(170,146,207); stroke-width: 15; stroke-dasharray: none; stroke-linecap: round; stroke-dashoffset: 0; stroke-linejoin: miter; stroke-miterlimit: 4; fill: none; fill-rule: nonzero; opacity: 1;" vector-effect="non-scaling-stroke"  transform=" translate(-130, -200)" d="M 130 96.53 L 130 303.48" stroke-linecap="round" />
</g>
		<g transform="matrix(1 0 0 1 -250 0)"  >
<path style="stroke: rgb(121,82,179); stroke-width: 15; stroke-dasharray: none; stroke-linecap: round; stroke-dashoffset: 0; stroke-linejoin: miter; stroke-miterlimit: 4; fill: none; fill-rule: nonzero; opacity: 1;" vector-effect="non-scaling-stroke"  transform=" translate(-150, -200)" d="M 150 65.94 L 150 334.06" stroke-linecap="round" />
</g>
		<g transform="matrix(1 0 0 1 -230 0)"  >
<path style="stroke: rgb(121,82,179); stroke-width: 15; stroke-dasharray: none; stroke-linecap: round; stroke-dashoffset: 0; stroke-linejoin: miter; stroke-miterlimit: 4; fill: none; fill-rule: nonzero; opacity: 1;" vector-effect="non-scaling-stroke"  transform=" translate(-170, -200)" d="M 170 96.25 L 170 303.75" stroke-linecap="round" />
</g>
		<g transform="matrix(1 0 0 1 -210 0)"  >
<path style="stroke: rgb(170,146,207); stroke-width: 15; stroke-dasharray: none; stroke-linecap: round; stroke-dashoffset: 0; stroke-linejoin: miter; stroke-miterlimit: 4; fill: none; fill-rule: nonzero; opacity: 1;" vector-effect="non-scaling-stroke"  transform=" translate(-190, -200)" d="M 190 101.01 L 190 298.99" stroke-linecap="round" />
</g>
		<g transform="matrix(1 0 0 1 -190 0)"  >
<path style="stroke: rgb(170,146,207); stroke-width: 15; stroke-dasharray: none; stroke-linecap: round; stroke-dashoffset: 0; stroke-linejoin: miter; stroke-miterlimit: 4; fill: none; fill-rule: nonzero; opacity: 1;" vector-effect="non-scaling-stroke"  transform=" translate(-210, -200)" d="M 210 133.66 L 210 266.35" stroke-linecap="round" />
</g>
		<g transform="matrix(1 0 0 1 -170 0)"  >
<path style="stroke: rgb(170,146,207); stroke-width: 15; stroke-dasharray: none; stroke-linecap: round; stroke-dashoffset: 0; stroke-linejoin: miter; stroke-miterlimit: 4; fill: none; fill-rule: nonzero; opacity: 1;" vector-effect="non-scaling-stroke"  transform=" translate(-230, -200)" d="M 230 143.18 L 230 256.82" stroke-linecap="round" />
</g>
		<g transform="matrix(1 0 0 1 -150 0)"  >
<path style="stroke: rgb(170,146,207); stroke-width: 15; stroke-dasharray: none; stroke-linecap: round; stroke-dashoffset: 0; stroke-linejoin: miter; stroke-miterlimit: 4; fill: none; fill-rule: nonzero; opacity: 1;" vector-effect="non-scaling-stroke"  transform=" translate(-250, -200)" d="M 250 177.16 L 250 222.84" stroke-linecap="round" />
</g>
		<g transform="matrix(1 0 0 1 -130 0)"  >
<path style="stroke: rgb(121,82,179); stroke-width: 15; stroke-dasharray: none; stroke-linecap: round; stroke-dashoffset: 0; stroke-linejoin: miter; stroke-miterlimit: 4; fill: none; fill-rule: nonzero; opacity: 1;" vector-effect="non-scaling-stroke"  transform=" translate(-270, -200)" d="M 270 173.2 L 270 226.8" stroke-linecap="round" />
</g>
		<g transform="matrix(1 0 0 1 -110 0)"  >
<path style="stroke: rgb(121,82,179); stroke-width: 15; stroke-dasharray: none; stroke-linecap: round; stroke-dashoffset: 0; stroke-linejoin: miter; stroke-miterlimit: 4; fill: none; fill-rule: nonzero; opacity: 1;" vector-effect="non-scaling-stroke"  transform=" translate(-290, -200)" d="M 290 153.05 L 290 246.95" stroke-linecap="round" />
</g>
		<g transform="matrix(1 0 0 1 -90 0)"  >
<path style="stroke: rgb(121,82,179); stroke-width: 15; stroke-dasharray: none; stroke-linecap: round; stroke-dashoffset: 0; stroke-linejoin: miter; stroke-miterlimit: 4; fill: none; fill-rule: nonzero; opacity: 1;" vector-effect="non-scaling-stroke"  transform=" translate(-310, -200)" d="M 310 105.44 L 310 294.56" stroke-linecap="round" />
</g>
		<g transform="matrix(1 0 0 1 -70 0)"  >
<path style="stroke: rgb(170,146,207); stroke-width: 15; stroke-dasharray: none; stroke-linecap: round; stroke-dashoffset: 0; stroke-linejoin: miter; stroke-miterlimit: 4; fill: none; fill-rule: nonzero; opacity: 1;" vector-effect="non-scaling-stroke"  transform=" translate(-330, -200)" d="M 330 72.33 L 330 327.67" stroke-linecap="round" />
</g>
		<g transform="matrix(1 0 0 1 -50 0)"  >
<path style="stroke: rgb(170,146,207); stroke-width: 15; stroke-dasharray: none; stroke-linecap: round; stroke-dashoffset: 0; stroke-linejoin: miter; stroke-miterlimit: 4; fill: none; fill-rule: nonzero; opacity: 1;" vector-effect="non-scaling-stroke"  transform=" translate(-350, -200)" d="M 350 171.44 L 350 228.56" stroke-linecap="round" />
</g>
		<g transform="matrix(1 0 0 1 -30 0)"  >
<path style="stroke: rgb(121,82,179); stroke-width: 15; stroke-dasharray: none; stroke-linecap: round; stroke-dashoffset: 0; stroke-linejoin: miter; stroke-miterlimit: 4; fill: none; fill-rule: nonzero; opacity: 1;" vector-effect="non-scaling-stroke"  transform=" translate(-370, -200)" d="M 370 142.32 L 370 257.68" stroke-linecap="round" />
</g>
		<g transform="matrix(1 0 0 1 -10 0)"  >
<path style="stroke: rgb(170,146,207); stroke-width: 15; stroke-dasharray: none; stroke-linecap: round; stroke-dashoffset: 0; stroke-linejoin: miter; stroke-miterlimit: 4; fill: none; fill-rule: nonzero; opacity: 1;" vector-effect="non-scaling-stroke"  transform=" translate(-390, -200)" d="M 390 54.38 L 390 345.62" stroke-linecap="round" />
</g>
		<g transform="matrix(1 0 0 1 10 0)"  >
<path style="stroke: rgb(121,82,179); stroke-width: 15; stroke-dasharray: none; stroke-linecap: round; stroke-dashoffset: 0; stroke-linejoin: miter; stroke-miterlimit: 4; fill: none; fill-rule: nonzero; opacity: 1;" vector-effect="non-scaling-stroke"  transform=" translate(-410, -200)" d="M 410 118.75 L 410 281.25" stroke-linecap="round" />
</g>
		<g transform="matrix(1 0 0 1 30 0)"  >
<path style="stroke: rgb(170,146,207); stroke-width: 15; stroke-dasharray: none; stroke-linecap: round; stroke-dashoffset: 0; stroke-linejoin: miter; stroke-miterlimit: 4; fill: none; fill-rule: nonzero; opacity: 1;" vector-effect="non-scaling-stroke"  transform=" translate(-430, -200)" d="M 430 151.41 L 430 248.59" stroke-linecap="round" />
</g>
		<g transform="matrix(1 0 0 1 50 0)"  >
<path style="stroke: rgb(121,82,179); stroke-width: 15; stroke-dasharray: none; stroke-linecap: round; stroke-dashoffset: 0; stroke-linejoin: miter; stroke-miterlimit: 4; fill: none; fill-rule: nonzero; opacity: 1;" vector-effect="non-scaling-stroke"  transform=" translate(-450, -200)" d="M 450 85.83 L 450 314.18" stroke-linecap="round" />
</g>
		<g transform="matrix(1 0 0 1 70 0)"  >
<path style="stroke: rgb(121,82,179); stroke-width: 15; stroke-dasharray: none; stroke-linecap: round; stroke-dashoffset: 0; stroke-linejoin: miter; stroke-miterlimit: 4; fill: none; fill-rule: nonzero; opacity: 1;" vector-effect="non-scaling-stroke"  transform=" translate(-470, -200)" d="M 470 144.75 L 470 255.25" stroke-linecap="round" />
</g>
		<g transform="matrix(1 0 0 1 90 0)"  >
<path style="stroke: rgb(121,82,179); stroke-width: 15; stroke-dasharray: none; stroke-linecap: round; stroke-dashoffset: 0; stroke-linejoin: miter; stroke-miterlimit: 4; fill: none; fill-rule: nonzero; opacity: 1;" vector-effect="non-scaling-stroke"  transform=" translate(-490, -200)" d="M 490 107.44 L 490 292.56" stroke-linecap="round" />
</g>
		<g transform="matrix(1 0 0 1 110 0)"  >
<path style="stroke: rgb(170,146,207); stroke-width: 15; stroke-dasharray: none; stroke-linecap: round; stroke-dashoffset: 0; stroke-linejoin: miter; stroke-miterlimit: 4; fill: none; fill-rule: nonzero; opacity: 1;" vector-effect="non-scaling-stroke"  transform=" translate(-510, -200)" d="M 510 140.1 L 510 259.9" stroke-linecap="round" />
</g>
		<g transform="matrix(1 0 0 1 130 0)"  >
<path style="stroke: rgb(121,82,179); stroke-width: 15; stroke-dasharray: none; stroke-linecap: round; stroke-dashoffset: 0; stroke-linejoin: miter; stroke-miterlimit: 4; fill: none; fill-rule: nonzero; opacity: 1;" vector-effect="non-scaling-stroke"  transform=" translate(-530, -200)" d="M 530 134.76 L 530 265.24" stroke-linecap="round" />
</g>
		<g transform="matrix(1 0 0 1 150 0)"  >
<path style="stroke: rgb(170,146,207); stroke-width: 15; stroke-dasharray: none; stroke-linecap: round; stroke-dashoffset: 0; stroke-linejoin: miter; stroke-miterlimit: 4; fill: none; fill-rule: nonzero; opacity: 1;" vector-effect="non-scaling-stroke"  transform=" translate(-550, -200)" d="M 550 85.98 L 550 314.01" stroke-linecap="round" />
</g>
		<g transform="matrix(1 0 0 1 170 0)"  >
<path style="stroke: rgb(170,146,207); stroke-width: 15; stroke-dasharray: none; stroke-linecap: round; stroke-dashoffset: 0; stroke-linejoin: miter; stroke-miterlimit: 4; fill: none; fill-rule: nonzero; opacity: 1;" vector-effect="non-scaling-stroke"  transform=" translate(-570, -200)" d="M 570 109.87 L 570 290.13" stroke-linecap="round" />
</g>
		<g transform="matrix(1 0 0 1 190 0)"  >
<path style="stroke: rgb(170,146,207); stroke-width: 15; stroke-dasharray: none; stroke-linecap: round; stroke-dashoffset: 0; stroke-linejoin: miter; stroke-miterlimit: 4; fill: none; fill-rule: nonzero; opacity: 1;" vector-effect="non-scaling-stroke"  transform=" translate(-590, -200)" d="M 590 81.3 L 590 318.7" stroke-linecap="round" />
</g>
		<g transform="matrix(1 0 0 1 210 0)"  >
<path style="stroke: rgb(121,82,179); stroke-width: 15; stroke-dasharray: none; stroke-linecap: round; stroke-dashoffset: 0; stroke-linejoin: miter; stroke-miterlimit: 4; fill: none; fill-rule: nonzero; opacity: 1;" vector-effect="non-scaling-stroke"  transform=" translate(-610, -200)" d="M 610 181.06 L 610 218.94" stroke-linecap="round" />
</g>
		<g transform="matrix(1 0 0 1 230 0.01)"  >
<path style="stroke: rgb(170,146,207); stroke-width: 15; stroke-dasharray: none; stroke-linecap: round; stroke-dashoffset: 0; stroke-linejoin: miter; stroke-miterlimit: 4; fill: none; fill-rule: nonzero; opacity: 1;" vector-effect="non-scaling-stroke"  transform=" translate(-630, -200.01)" d="M 630 63.9 L 630 336.11" stroke-linecap="round" />
</g>
		<g transform="matrix(1 0 0 1 250 0)"  >
<path style="stroke: rgb(121,82,179); stroke-width: 15; stroke-dasharray: none; stroke-linecap: round; stroke-dashoffset: 0; stroke-linejoin: miter; stroke-miterlimit: 4; fill: none; fill-rule: nonzero; opacity: 1;" vector-effect="non-scaling-stroke"  transform=" translate(-650, -200)" d="M 650 76.61 L 650 323.39" stroke-linecap="round" />
</g>
		<g transform="matrix(1 0 0 1 270 0)"  >
<path style="stroke: rgb(170,146,207); stroke-width: 15; stroke-dasharray: none; stroke-linecap: round; stroke-dashoffset: 0; stroke-linejoin: miter; stroke-miterlimit: 4; fill: none; fill-rule: nonzero; opacity: 1;" vector-effect="non-scaling-stroke"  transform=" translate(-670, -200)" d="M 670 108.33 L 670 291.68" stroke-linecap="round" />
</g>
		<g transform="matrix(1 0 0 1 290 0)"  >
<path style="stroke: rgb(170,146,207); stroke-width: 15; stroke-dasharray: none; stroke-linecap: round; stroke-dashoffset: 0; stroke-linejoin: miter; stroke-miterlimit: 4; fill: none; fill-rule: nonzero; opacity: 1;" vector-effect="non-scaling-stroke"  transform=" translate(-690, -200)" d="M 690 156.18 L 690 243.82" stroke-linecap="round" />
</g>
		<g transform="matrix(1 0 0 1 310 0)"  >
<path style="stroke: rgb(121,82,179); stroke-width: 15; stroke-dasharray: none; stroke-linecap: round; stroke-dashoffset: 0; stroke-linejoin: miter; stroke-miterlimit: 4; fill: none; fill-rule: nonzero; opacity: 1;" vector-effect="non-scaling-stroke"  transform=" translate(-710, -200)" d="M 710 122.22 L 710 277.78" stroke-linecap="round" />
</g>
</g>
</g>
</svg>