<?xml version="1.0" encoding="UTF-8" standalone="no" ?>
<!DOCTYPE svg PUBLIC "-//W3C//DTD SVG 1.1//EN" "http://www.w3.org/Graphics/SVG/1.1/DTD/svg11.dtd">
<svg xmlns="http://www.w3.org/2000/svg" xmlns:xlink="http://www.w3.org/1999/xlink" version="1.1" width="200" height="200" viewBox="0 0 200 200" xml:space="preserve">
<desc>Created with Fabric.js 4.2.0</desc>
<defs>
</defs>
<g transform="matrix(1 0 0 1 100 100)" id="4745824d-4ca5-4ca4-bfaf-77377d24bdba"  >
<rect style="stroke: none; stroke-width: 1; stroke-dasharray: none; stroke-linecap: butt; stroke-dashoffset: 0; stroke-linejoin: miter; stroke-miterlimit: 4; fill: rgb(255,255,255); fill-rule: nonzero; opacity: 1; visibility: hidden;" vector-effect="non-scaling-stroke"  x="-100" y="-100" rx="0" ry="0" width="200" height="200" />
</g>
<g transform="matrix(Infinity NaN NaN Infinity 0 0)" id="1c29858b-fc48-46d2-b71d-fa96cc841c61"  >
</g>
<g transform="matrix(9.03 0 0 9.03 100 100)" id="b020f662-c53c-4dd9-8dae-69e185fcfc8b"  >
<path style="stroke: rgb(48,33,72); stroke-width: 0; stroke-dasharray: none; stroke-linecap: butt; stroke-dashoffset: 0; stroke-linejoin: miter; stroke-miterlimit: 4; fill: rgb(48,33,72); fill-rule: nonzero; opacity: 1;" vector-effect="non-scaling-stroke"  transform=" translate(-8, -8)" d="M 1.5 8 C 1.5 4.410149126099842 4.410149126099842 1.5 8 1.5 C 11.589850873900158 1.5 14.5 4.4101491260998404 14.5 7.999999999999998 C 14.5 11.589850873900158 11.589850873900158 14.5 8 14.5 C 4.410149126099842 14.5 1.5 11.589850873900158 1.5 8 z M 8 0 C 3.5817220013536524 0 0 3.5817220013536524 0 8 C 0 12.418277998646348 3.5817220013536524 16 8 16 C 12.418277998646348 16 16 12.418277998646348 16 8 C 16 3.5817220013536524 12.418277998646348 0 8 0 z M 8.75 4.75 C 8.75 4.335786437626905 8.414213562373096 4 8 4 C 7.585786437626905 4 7.25 4.335786437626905 7.25 4.75 L 7.25 7.25 L 4.75 7.25 C 4.335786437626905 7.25 4 7.585786437626905 4 8 C 4 8.414213562373096 4.335786437626905 8.75 4.75 8.75 L 7.25 8.75 L 7.25 11.25 C 7.25 11.664213562373096 7.585786437626905 12 8 12 C 8.414213562373096 12 8.75 11.664213562373096 8.75 11.25 L 8.75 8.75 L 11.25 8.75 C 11.664213562373096 8.75 12 8.414213562373096 12 8 C 12 7.585786437626905 11.664213562373096 7.25 11.25 7.25 L 8.75 7.25 L 8.75 4.75 z" stroke-linecap="round" />
</g>
</svg>