<svg xmlns="http://www.w3.org/2000/svg" version="1.1" xmlns:xlink="http://www.w3.org/1999/xlink" xmlns:svgjs="http://svgjs.com/svgjs" width="200" height="200" preserveAspectRatio="none" viewBox="0 0 200 200"><g mask="url(&quot;#SvgjsMask1078&quot;)" fill="none"><rect width="200" height="200" x="0" y="0" fill="rgba(121, 82, 179, 1)"></rect><path d="M0,73.094C13.651,73.065,25.309,64.621,37.002,57.576C49.03,50.329,62.863,44.142,69.008,31.515C75.198,18.796,69.166,4.073,69.914,-10.052C70.891,-28.499,82.822,-47.916,74.078,-64.189C65.328,-80.473,44.546,-86.151,26.613,-90.637C9.171,-95,-9.973,-96.989,-26.215,-89.279C-41.682,-81.937,-47.638,-63.902,-58.159,-50.395C-68.025,-37.73,-83.238,-28.176,-86.116,-12.382C-89.022,3.563,-82.741,20.262,-73.455,33.546C-64.944,45.721,-50.184,50.692,-37.104,57.734C-25.075,64.211,-13.662,73.123,0,73.094" fill="#4e3476"></path><path d="M200 273.40999999999997C213.422 271.931 224.39600000000002 261.964 233.29500000000002 251.809 240.767 243.28300000000002 240.642 231.003 245.94299999999998 220.982 251.714 210.072 265.672 202.896 265.696 190.554 265.72 178.222 253.814 169.678 246.061 160.088 238.022 150.144 231.763 137.209 219.539 133.457 207.289 129.697 194.877 137.06900000000002 182.558 140.597 170.149 144.151 155.201 144.114 147.138 154.19400000000002 139.101 164.24099999999999 141.72 178.757 141.739 191.623 141.756 202.828 144.1 213.339 147.242 224.094 150.906 236.637 152.084 250.78199999999998 161.63 259.705 171.757 269.171 186.221 274.928 200 273.40999999999997" fill="#aa92cf"></path></g><defs><mask id="SvgjsMask1078"><rect width="200" height="200" fill="#ffffff"></rect></mask></defs></svg>