<?xml version="1.0" encoding="UTF-8" standalone="no" ?>
<!DOCTYPE svg PUBLIC "-//W3C//DTD SVG 1.1//EN" "http://www.w3.org/Graphics/SVG/1.1/DTD/svg11.dtd">
<svg xmlns="http://www.w3.org/2000/svg" xmlns:xlink="http://www.w3.org/1999/xlink" version="1.1" width="200" height="200" viewBox="0 0 200 200" xml:space="preserve">
<desc>Created with Fabric.js 4.2.0</desc>
<defs>
</defs>
<rect x="0" y="0" width="100%" height="100%" fill="transparent"></rect>
<g transform="matrix(1 0 0 1 100 100)" id="4745824d-4ca5-4ca4-bfaf-77377d24bdba"  >
<rect style="stroke: none; stroke-width: 1; stroke-dasharray: none; stroke-linecap: butt; stroke-dashoffset: 0; stroke-linejoin: miter; stroke-miterlimit: 4; fill: rgb(255,255,255); fill-rule: nonzero; opacity: 1; visibility: hidden;" vector-effect="non-scaling-stroke"  x="-100" y="-100" rx="0" ry="0" width="200" height="200" />
</g>
<g transform="matrix(Infinity NaN NaN Infinity 0 0)" id="1c29858b-fc48-46d2-b71d-fa96cc841c61"  >
</g>
<g transform="matrix(7.89 0 0 7.89 100 100)" id="f4a77b3e-027d-4a51-8b14-9086da7b902a"  >
<path style="stroke: rgb(48,33,72); stroke-width: 0; stroke-dasharray: none; stroke-linecap: butt; stroke-dashoffset: 0; stroke-linejoin: miter; stroke-miterlimit: 4; fill: rgb(48,33,72); fill-rule: nonzero; opacity: 1;" vector-effect="non-scaling-stroke"  transform=" translate(-12.25, -12)" d="M 3 3.25 C 3 2.284 3.784 1.5 4.75 1.5 L 10.25 1.5 C 10.664213562373096 1.5 11 1.8357864376269046 11 2.25 C 11 2.664213562373095 10.664213562373096 3 10.25 3 L 4.75 3 C 4.611928812542302 3 4.5 3.1119288125423017 4.5 3.25 L 4.5 20.75 C 4.5 20.888 4.612 21 4.75 21 L 10.25 21 C 10.664213562373096 21 11 21.335786437626904 11 21.75 C 11 22.164213562373096 10.664213562373096 22.5 10.25 22.5 L 4.75 22.5 C 3.7835016877961114 22.5 3 21.71649831220389 3 20.75 L 3 3.25 z M 19.006 12.75 L 15.706 16.234 C 15.432641652991581 16.536043408237855 15.450372185887808 17.001064677075682 15.745936330669757 17.281415961464443 C 16.04150047545171 17.561767245853204 16.506809307153453 17.554923021376688 16.794 17.266000000000002 L 21.294 12.516000000000002 C 21.568289313844698 12.226676328262643 21.568289313844698 11.77332367173736 21.294 11.484000000000002 L 16.794 6.734000000000002 C 16.506809307153453 6.445076978623316 16.041500475451706 6.4382327541467985 15.745936330669757 6.7185840385355595 C 15.450372185887808 6.9989353229243205 15.432641652991581 7.463956591762148 15.706 7.766000000000002 L 19.006 11.250000000000002 L 10.75 11.250000000000002 C 10.335786437626904 11.250000000000002 10 11.585786437626906 10 12.000000000000002 C 10 12.414213562373098 10.335786437626904 12.750000000000002 10.75 12.750000000000002 L 19.006 12.750000000000002 z" stroke-linecap="round" />
</g>
</svg>