<?xml version="1.0" encoding="UTF-8" standalone="no" ?>
<!DOCTYPE svg PUBLIC "-//W3C//DTD SVG 1.1//EN" "http://www.w3.org/Graphics/SVG/1.1/DTD/svg11.dtd">
<svg xmlns="http://www.w3.org/2000/svg" xmlns:xlink="http://www.w3.org/1999/xlink" version="1.1" width="1080" height="1080" viewBox="0 0 1080 1080" xml:space="preserve">
<desc>Created with Fabric.js 4.2.0</desc>
<defs>
</defs>
<rect x="0" y="0" width="100%" height="100%" fill="transparent"></rect>
<g transform="matrix(1 0 0 1 540 540)" id="5075fd15-d944-4f92-b3e1-8c08608dfd5e"  >
</g>
<g transform="matrix(1 0 0 1 540 540)" id="1e6acf00-479f-41c5-bc88-16aecbda4cbe"  >
<rect style="stroke: none; stroke-width: 1; stroke-dasharray: none; stroke-linecap: butt; stroke-dashoffset: 0; stroke-linejoin: miter; stroke-miterlimit: 4; fill: rgb(121,82,179); fill-rule: nonzero; opacity: 1;" vector-effect="non-scaling-stroke"  x="-540" y="-540" rx="0" ry="0" width="1080" height="1080" />
</g>
<g transform="matrix(12.32 0 0 12.32 539.91 539.86)"  >
<g style="opacity: 1;" vector-effect="non-scaling-stroke"   >
		<g transform="matrix(1 0 0 1 0.21 -14.89)"  >
<ellipse style="stroke: none; stroke-width: 1; stroke-dasharray: none; stroke-linecap: butt; stroke-dashoffset: 0; stroke-linejoin: miter; stroke-miterlimit: 4; fill: rgb(48,33,72); fill-rule: nonzero; opacity: 1;" vector-effect="non-scaling-stroke"  cx="0" cy="0" rx="18.519" ry="20.634" />
</g>
		<g transform="matrix(1 0 0 1 0 20.01)"  >
<polygon style="stroke: none; stroke-width: 1; stroke-dasharray: none; stroke-linecap: butt; stroke-dashoffset: 0; stroke-linejoin: miter; stroke-miterlimit: 4; fill: rgb(48,33,72); fill-rule: nonzero; opacity: 1;" vector-effect="non-scaling-stroke"  points="-17.95,-15.45 -17.28,-15.45 -16.87,-15.35 -16.46,-15.19 -16.04,-14.99 -15.68,-14.73 -15.22,-14.37 -14.8,-13.9 -14.34,-13.28 -13.88,-12.61 -13.41,-11.84 -13,-10.91 -12.54,-9.98 -12.12,-8.95 -11.71,-7.81 -11.35,-6.68 -10.99,-5.55 -10.63,-4.31 -10.27,-3.12 -9.9,-1.94 -9.54,-0.7 -9.23,0.49 -8.87,1.67 -8.46,2.81 -8.1,3.95 -7.63,5.03 -7.12,6.17 -6.55,7.19 -5.78,8.28 -4.8,9.36 -3.51,10.34 -1.85,11.01 0,11.27 1.91,11.01 3.56,10.29 4.9,9.31 5.83,8.23 6.55,7.14 7.17,6.06 7.69,4.92 8.1,3.84 8.51,2.66 8.87,1.52 9.23,0.34 9.6,-0.85 9.96,-2.09 10.32,-3.33 10.68,-4.51 11.04,-5.7 11.45,-6.89 11.86,-8.02 12.28,-9.11 12.74,-10.14 13.21,-11.06 13.72,-11.94 14.19,-12.72 14.7,-13.39 15.22,-13.95 15.68,-14.42 16.15,-14.73 16.66,-15.04 17.13,-15.24 17.69,-15.4 18.31,-15.45 19.24,-15.5 19.86,-15.45 20.38,-15.4 20.89,-15.35 21.41,-15.24 21.87,-15.14 22.39,-15.04 22.85,-14.88 23.27,-14.68 23.73,-14.52 24.14,-14.32 24.55,-14.06 24.92,-13.85 25.28,-13.59 25.64,-13.33 26,-13.03 26.31,-12.77 26.62,-12.46 26.88,-12.15 27.13,-11.84 27.39,-11.53 27.6,-11.22 27.81,-10.91 28.01,-10.65 28.16,-10.34 28.27,-10.09 28.37,-9.78 28.48,-9.57 28.53,-9.31 28.58,-9.16 28.63,-8.95 28.63,-8.85 28.63,-8.64 28.63,11.73 28.63,12.2 28.58,12.56 28.48,12.92 28.37,13.23 28.22,13.54 28.01,13.85 27.81,14.11 27.55,14.37 27.24,14.62 26.93,14.88 26.62,15.04 26.26,15.19 25.9,15.34 25.53,15.45 25.12,15.5 24.61,15.5 -24.61,15.5 -25.12,15.5 -25.48,15.45 -25.9,15.34 -26.26,15.19 -26.62,15.04 -26.93,14.88 -27.24,14.62 -27.5,14.37 -27.75,14.11 -27.96,13.85 -28.16,13.54 -28.32,13.23 -28.42,12.92 -28.53,12.56 -28.58,12.2 -28.63,11.73 -28.63,-8.64 -28.63,-8.8 -28.58,-8.85 -28.58,-9 -28.53,-9.16 -28.47,-9.36 -28.37,-9.57 -28.27,-9.83 -28.11,-10.09 -27.91,-10.4 -27.7,-10.7 -27.5,-11.01 -27.24,-11.32 -26.93,-11.63 -26.62,-11.94 -26.31,-12.25 -25.95,-12.56 -25.59,-12.87 -25.17,-13.18 -24.76,-13.44 -24.3,-13.7 -23.83,-13.95 -23.37,-14.21 -22.9,-14.42 -22.39,-14.62 -21.87,-14.83 -21.3,-14.99 -20.79,-15.14 -20.22,-15.24 -19.66,-15.35 -19.03,-15.4 -18.47,-15.45 " />
</g>
</g>
</g>
<g transform="matrix(12.16 0 0 12.16 540 540)" id="aff47e9b-d139-45e3-bbd3-0879a6b45efb"  >
<path style="stroke: rgb(255,0,0); stroke-width: 3; stroke-dasharray: none; stroke-linecap: butt; stroke-dashoffset: 0; stroke-linejoin: miter; stroke-miterlimit: 4; fill: rgb(48,33,72); fill-rule: nonzero; opacity: 1;" vector-effect="non-scaling-stroke"  transform=" translate(-50, -50)" d="M 24.442 24.417 C 38.551 10.306000000000001 61.448 10.306000000000001 75.557 24.417 C 89.718 38.576 89.718 61.473 75.557 75.584 C 61.448 89.694 38.551 89.694 24.442 75.584 C 10.281 61.473 10.281 38.576 24.442 24.417 z M 34.835 29.637 L 70.388 65.188 C 77.768 55.196 76.965 41.087 67.977 32.048 C 58.94 23.01 44.779 22.208 34.835 29.637 z M 65.164 70.361 L 29.615 34.86 C 22.232 44.803 23.034 58.963 32.022999999999996 67.951 C 41.063 76.99 55.225 77.793 65.164 70.361 z" stroke-linecap="round" />
</g>
</svg>