<?xml version="1.0" encoding="UTF-8" standalone="no" ?>
<!DOCTYPE svg PUBLIC "-//W3C//DTD SVG 1.1//EN" "http://www.w3.org/Graphics/SVG/1.1/DTD/svg11.dtd">
<svg xmlns="http://www.w3.org/2000/svg" xmlns:xlink="http://www.w3.org/1999/xlink" version="1.1" width="200" height="200" viewBox="0 0 200 200" xml:space="preserve">
<desc>Created with Fabric.js 4.2.0</desc>
<defs>
</defs>
<rect x="0" y="0" width="100%" height="100%" fill="transparent"></rect>
<g transform="matrix(0 0 0 0 0 0)" id="1c29858b-fc48-46d2-b71d-fa96cc841c61"  >
</g>
<g transform="matrix(1 0 0 1 100 100)" id="4745824d-4ca5-4ca4-bfaf-77377d24bdba"  >
<rect style="stroke: none; stroke-width: 1; stroke-dasharray: none; stroke-linecap: butt; stroke-dashoffset: 0; stroke-linejoin: miter; stroke-miterlimit: 4; fill: rgb(255,255,255); fill-rule: nonzero; opacity: 1; visibility: hidden;" vector-effect="non-scaling-stroke"  x="-100" y="-100" rx="0" ry="0" width="200" height="200" />
</g>
<g transform="matrix(7.49 0 0 7.49 100 100)"  >
<g style="" vector-effect="non-scaling-stroke"   >
		<g transform="matrix(1 0 0 1 -1.06 1.06)"  >
<path style="stroke: rgb(255,193,7); stroke-width: 2; stroke-dasharray: none; stroke-linecap: round; stroke-dashoffset: 0; stroke-linejoin: round; stroke-miterlimit: 4; fill: none; fill-rule: nonzero; opacity: 1;" vector-effect="non-scaling-stroke"  transform=" translate(-11, -13)" d="M 11 4 L 4 4 C 2.895430500338413 4 2 4.8954305003384135 2 6 L 2 20 C 2 21.104569499661586 2.895430500338413 22 4 22 L 18 22 C 19.104569499661586 22 20 21.104569499661586 20 20 L 20 13" stroke-linecap="round" />
</g>
		<g transform="matrix(1 0 0 1 3 -3)"  >
<path style="stroke: rgb(255,193,7); stroke-width: 2; stroke-dasharray: none; stroke-linecap: round; stroke-dashoffset: 0; stroke-linejoin: round; stroke-miterlimit: 4; fill: none; fill-rule: nonzero; opacity: 1;" vector-effect="non-scaling-stroke"  transform=" translate(-15.06, -8.94)" d="M 18.5 2.5 C 19.32842712474619 1.6715728752538097 20.67157287525381 1.6715728752538097 21.5 2.5 C 22.32842712474619 3.32842712474619 22.32842712474619 4.671572875253809 21.5 5.5 L 12 15 L 8 16 L 9 12 L 18.5 2.5 z" stroke-linecap="round" />
</g>
</g>
</g>
</svg>